<?xml version="1.0" encoding="utf-8"?>
<svg xmlns="http://www.w3.org/2000/svg" viewBox="0 0 3026.5732 2476.28" height="2476.28" width="3026.5732" id="svg2" version="1.1">
  <g transform="matrix(1.3333333,0,0,-1.3333333,0,2476.28)" id="g10">
    <g transform="scale(0.1)" id="g12">
      <g transform="scale(1.39258)" id="g14"/>
      <g transform="scale(1.1096)" id="g18">
        <path id="path20" style="fill:#040606;fill-opacity:1;fill-rule:nonzero;stroke:none" d="m 5920.08,5498.01 c -147.32,344.36 -284.78,677.18 -379.1,1025.87 -5.77,21.26 -13.18,42.53 -15.74,64.34 -7.89,67.05 -35.06,109.59 -111.5,108.87 -56.85,-0.45 -88.98,32.26 -105.54,88.59 -240.64,817.95 -397.26,1648.32 -372.67,2505.67 1.8,62.96 3.74,126.14 26.56,192.64 -55.54,12.16 -84.73,-35.53 -131.64,-38.32 -29.27,60.95 -25.1,128.01 -20.58,192.49 58.25,830.14 197.62,1644.54 468.17,2434.14 37.54,109.6 93.58,183.7 211.37,215.6 99.51,27 193.22,75.3 307.64,121.5 -151.44,33.6 -288.59,26.5 -423.28,39.4 -252.16,24.2 -505.21,38.9 -757.65,60.3 -54.11,4.6 -94.33,-7.6 -136.48,-44.1 -409.3,-354.8 -818.49,-709.8 -1233.1,-1058.4 -92.98,-78.1 -150.06,-170.2 -179.3,-281.5 -23,-87.6 -74.33,-146.6 -141.55,-204.1 -183.2,-156.5 -386.55,-261.9 -629.24,-284.3 -70.47,-6.6 -140.06,-4.5 -205.43,23.2 -97.19,41.3 -103.68,101.6 -19.56,164.7 101.13,75.9 212.97,138 299.62,232.4 14.61,15.9 27.49,33.5 44.91,54.8 -37.7,19.2 -57.62,-8.8 -79.66,-18 -90.58,-37.8 -180.2,-76.9 -280.16,-83.7 -47.65,-3.2 -79.59,11 -90.25,61.4 -10.72,50.8 4.27,86.8 53.82,106.3 41.15,16.2 81.88,33.5 123.36,48.8 140.27,51.7 255.03,134.2 343.21,258 81.62,114.5 191.95,193.9 337.26,206.8 47.73,4.3 61.83,39.3 84.1,67.7 394.98,503.4 790.32,1006.2 1217.58,1483.3 101.83,113.7 219.22,170.4 366.75,160.1 64.49,-4.5 95.97,16.7 99.16,76.2 4.05,75.6 49.83,89.9 113.51,95.4 581.22,50.4 1162.66,87.2 1746.05,40.2 186.35,-15 371.89,-36.8 551.77,-90.1 56.61,-16.8 76.3,-10.7 76.53,55.8 0.52,155.8 26.59,308.1 82.3,455.2 157.78,416.6 556.05,647.1 993.42,562 301.73,-58.8 556.85,-206.5 748.97,-449.8 126.65,-160.4 185.68,-333.2 87.86,-536.9 -77.78,-162 -75.56,-338.7 -49.52,-512.9 19.07,-127.5 33.3,-245.7 -113.15,-314.4 -30.45,-14.3 -49.62,-56 -70.09,-87.6 -62.11,-95.9 -107.49,-200.3 -153.22,-304.6 -77.7,-177.2 -78.21,-175.8 -275.86,-160 -106.92,8.6 -233.32,50.3 -315.97,8.2 -83.63,-42.5 -101.04,-181.2 -144.49,-278.9 -237.98,-535.3 -446.91,-1080.7 -562.66,-1657.6 -4.36,-21.7 -4.45,-44.8 -11.92,-65.2 -23.06,-63.4 1.54,-78.1 63.97,-84.9 638.91,-69.4 1274.39,-165.08 1910.8,-253.98 50.1,-7.01 100.03,-19.44 150.32,-20.84 93.91,-2.62 167.72,-24.91 175.65,-136.39 2.7,-38.03 32.35,-39.65 61.91,-44.12 467.76,-70.9 923.16,-186.34 1355.76,-382.25 63,-28.57 130.7,-19.24 196.5,-23.56 179.4,-11.78 361.8,2.22 535,-63.57 13.5,-5.11 37.8,-8.14 44.3,-0.79 66.2,74.95 133.8,23.71 198.4,2.46 430,-141.55 839.1,-334.56 1253.2,-515.03 810.8,-353.31 1657.3,-539.82 2541.6,-556.54 107.5,-2.03 215,-10.02 322.3,-17.77 71.2,-5.13 124.5,-41.9 161.4,-103 34.2,-56.85 32.7,-104.85 -25,-148.47 -33.4,-25.34 -70.5,-40.29 -77.2,-102.78 -5.2,-47.39 -82.7,-87.53 -148.3,-60.52 -53.9,22.17 -76.7,15.04 -87.7,-44.76 -9.4,-50.65 -109.6,-105.54 -147.9,-76.88 -43.1,32.27 -70.2,8.93 -101.8,-5.41 -192.8,-87.77 -385.6,-175.28 -576.7,-266.31 -53.3,-25.41 -120,-29.92 -129.3,-121.75 -4.2,-40.56 -84.1,-88.32 -148.6,-44.7 -59.2,40.1 -82.5,20.73 -93.6,-40.47 -14,-77.05 -105.6,-121.39 -165.7,-72.46 -29.8,24.25 -45.7,7.58 -66.6,2.98 -180.9,-40.29 -300.8,38.75 -334.7,224.13 -14.7,80.93 -27.5,162.22 -37.7,243.87 -9.7,77.96 -51.7,111.49 -128.9,126 -368.6,69.48 -739.8,100.41 -1114.9,95.71 -322.7,-4.05 -645.7,-29.29 -968.4,10.73 -209.9,26.08 -408.8,76.32 -583.1,205.18 -136.6,100.95 -292.5,138.56 -463.5,140.65 -465.7,5.73 -931.28,19.71 -1396.85,33.03 -58.49,1.67 -98.6,-4.12 -103.92,-73.29 -4.41,-57.09 -47.22,-54.48 -90.48,-54.15 -586.08,4.39 -1172.2,8.21 -1758.34,11.37 -210.92,1.15 -421.87,0.19 -637.9,-12.36 97.46,-48.39 194.07,-98.59 292.79,-144.29 41.98,-19.44 61.82,-44.83 66.74,-92.12 34.06,-327.48 69.13,-654.89 108.44,-981.76 7.1,-59.04 -16.92,-73.72 -64.24,-77.78 -54.24,-4.69 -62.62,-34.25 -57.2,-84.08 47.66,-438.09 64.72,-877.89 76.21,-1318.23 6.86,-262.89 -97.82,-456.92 -318.48,-595.35 -136.82,-85.79 -276.83,-165.55 -419.69,-240.44 -36.09,-19.02 -77.63,-27.4 -47.77,-86.88 25.71,-51.19 -29.39,-54.16 -56.09,-66.78 -400.54,-189.08 -815.29,-343.01 -1231.26,-493.78 -519.79,-188.36 -1044.34,-364.91 -1541.05,-611.03 -391.88,-194.13 -755.73,-426.82 -1023.89,-782.72 -53.1,-70.47 -98.96,-146.9 -143.21,-223.41 -48.43,-83.82 -121.2,-98.41 -203.86,-74.98 -79.21,22.35 -132.04,73.72 -132.45,163.48 -0.23,50.74 1.07,101.48 -0.69,152.13 -0.71,20.46 7.67,41.9 -12.32,61.28 -70.16,67.95 -58.62,122.21 8.46,195.75 41.53,45.51 60.67,128.06 29.52,200.97 -27.82,65.07 -1.77,143.02 62.04,167.45 15.38,5.86 28.84,9.28 35.57,23.52 81.13,171.86 230.91,292.72 332.65,449.08 32.7,50.2 72.8,92.91 42.91,169.43 -16.39,42 4.77,110.22 71.26,137.35 48.27,19.73 64.16,64.62 53.41,115.26 -16.79,79.13 18.37,139.78 94.24,157.81 9,2.16 21.54,-0.99 27.2,4.14 143.95,130.32 279.94,71.92 426.13,-4.32 285.8,-149.16 537.36,-109.41 785.27,113.37 282.76,254.06 555.82,519.02 849.44,760.91 195.81,161.32 398.82,312.54 631.95,417.08 92.36,41.46 189.05,71.11 299.34,80.39"/>
      </g>
      <g transform="scale(1.26167)" id="g22">
        <path id="path24" style="fill:#040606;fill-opacity:1;fill-rule:nonzero;stroke:none" d="m 15380.1,7436.8 c -503.1,1.82 -905.4,405.77 -905.4,909.11 0,499.24 405,908.46 898.1,907.48 514.1,-1.02 927.2,-410.57 921.4,-913.29 -5.9,-503.08 -412.6,-905.11 -914.1,-903.3"/>
      </g>
    </g>
  </g>
</svg>